<svg width="16" height="16" viewBox="0 0 16 16" fill="none" xmlns="http://www.w3.org/2000/svg">
<path d="M9.42522 3.33317C10.0764 3.46021 10.6748 3.77867 11.1439 4.24779C11.613 4.71691 11.9315 5.31535 12.0585 5.9665M9.42522 0.666504C10.7781 0.816795 12.0396 1.42262 13.0027 2.38451C13.9658 3.3464 14.5732 4.60718 14.7252 5.95984M14.0585 11.2798V13.2798C14.0593 13.4655 14.0213 13.6493 13.9469 13.8194C13.8725 13.9895 13.7634 14.1422 13.6266 14.2677C13.4898 14.3933 13.3283 14.4888 13.1524 14.5483C12.9765 14.6078 12.7901 14.6299 12.6052 14.6132C10.5538 14.3903 8.58322 13.6893 6.85188 12.5665C5.2411 11.5429 3.87544 10.1773 2.85188 8.5665C1.7252 6.82731 1.02404 4.84717 0.805216 2.7865C0.788556 2.60215 0.810466 2.41634 0.869549 2.24092C0.928633 2.0655 1.0236 1.9043 1.14839 1.76758C1.27319 1.63087 1.42509 1.52164 1.59441 1.44685C1.76373 1.37206 1.94678 1.33334 2.13188 1.33317H4.13188C4.45542 1.32999 4.76908 1.44456 5.01439 1.65553C5.2597 1.86649 5.41993 2.15947 5.46522 2.47984C5.54963 3.11988 5.70618 3.74832 5.93188 4.35317C6.02158 4.59179 6.04099 4.85111 5.98782 5.10042C5.93465 5.34973 5.81112 5.57858 5.63188 5.75984L4.78522 6.6065C5.73425 8.27553 7.11619 9.65747 8.78522 10.6065L9.63188 9.75984C9.81314 9.58059 10.042 9.45707 10.2913 9.4039C10.5406 9.35073 10.7999 9.37014 11.0385 9.45984C11.6434 9.68554 12.2718 9.84209 12.9119 9.9265C13.2357 9.97219 13.5315 10.1353 13.7429 10.3848C13.9543 10.6344 14.0667 10.9529 14.0585 11.2798Z" stroke="#1E1E1E" stroke-width="1.6" stroke-linecap="round" stroke-linejoin="round"/>
</svg>
